<svg xmlns="http://www.w3.org/2000/svg" xmlns:xlink="http://www.w3.org/1999/xlink" viewBox="0 0 364.69 364.62"><defs><style>.cls-1{fill:url(#linear-gradient);}.cls-2{fill:url(#linear-gradient-2);}.cls-3{opacity:0.7;mix-blend-mode:screen;fill:url(#linear-gradient-3);}.cls-4{opacity:0.6;}.cls-5,.cls-9{fill:#fff;}.cls-16,.cls-6{fill:none;}.cls-6{stroke:#f89626;stroke-miterlimit:1;stroke-width:2px;}.cls-7{fill:#6c72b5;}.cls-8{fill:#c05a35;}.cls-9{font-size:14.99px;font-family:BebasNeue-Regular, Bebas Neue;}.cls-10{letter-spacing:-0.02em;}.cls-11{letter-spacing:-0.02em;}.cls-12{letter-spacing:-0.02em;}.cls-13{letter-spacing:0.01em;}.cls-14{fill:#f79868;}.cls-15{fill:#f499c1;}</style><linearGradient id="linear-gradient" x1="13.11" y1="25.21" x2="13.11" y2="1" gradientUnits="userSpaceOnUse"><stop offset="0" stop-color="#f29bb2"/><stop offset="0.62" stop-color="#db9555"/><stop offset="0.63" stop-color="#f9f8f7"/><stop offset="0.98" stop-color="#f29bb2"/></linearGradient><linearGradient id="linear-gradient-2" x1="13.11" y1="25.21" x2="13.11" y2="1" gradientUnits="userSpaceOnUse"><stop offset="0" stop-color="#f2c742"/><stop offset="0.62" stop-color="#f29cb6"/><stop offset="0.83" stop-color="#e39826" stop-opacity="0.4"/><stop offset="0.98" stop-color="#fff" stop-opacity="0"/></linearGradient><linearGradient id="linear-gradient-3" x1="13.11" y1="1" x2="13.11" y2="25.21" gradientUnits="userSpaceOnUse"><stop offset="0" stop-color="#fff" stop-opacity="0.77"/><stop offset="0.2" stop-color="#fff" stop-opacity="0.65"/><stop offset="0.34" stop-color="#fff" stop-opacity="0.65"/><stop offset="0.35" stop-color="#fff" stop-opacity="0.65"/><stop offset="0.37" stop-color="#fff" stop-opacity="0.62"/><stop offset="0.4" stop-color="#fff" stop-opacity="0.53"/><stop offset="0.43" stop-color="#fff" stop-opacity="0.39"/><stop offset="0.47" stop-color="#fff" stop-opacity="0.2"/><stop offset="0.51" stop-color="#fff" stop-opacity="0"/><stop offset="0.52" stop-color="#fffefd" stop-opacity="0.01"/><stop offset="0.57" stop-color="#fcf6f2" stop-opacity="0.08"/><stop offset="0.64" stop-color="#faf0ea" stop-opacity="0.13"/><stop offset="0.74" stop-color="#f9ede5" stop-opacity="0.15"/><stop offset="1" stop-color="#f9ece4" stop-opacity="0.16"/></linearGradient><symbol id="Illuminated_Orange_2" data-name="Illuminated Orange 2" viewBox="0 0 26.21 26.21"><path class="cls-1" d="M25.21,13.11A12.11,12.11,0,1,1,13.11,1,12.1,12.1,0,0,1,25.21,13.11Z"/><path class="cls-2" d="M25.21,13.11A12.11,12.11,0,1,1,13.11,1,12.1,12.1,0,0,1,25.21,13.11Z"/><path class="cls-3" d="M25.21,13.11A12.11,12.11,0,1,1,13.11,1,12.1,12.1,0,0,1,25.21,13.11Z"/><g class="cls-4"><path class="cls-5" d="M13.11,2.8A10.31,10.31,0,1,1,2.8,13.11,10.31,10.31,0,0,1,13.11,2.8m0-1.8a12.11,12.11,0,1,0,12.1,12.11A12.11,12.11,0,0,0,13.11,1Z"/></g><path class="cls-6" d="M25.21,13.11A12.11,12.11,0,1,1,13.11,1,12.1,12.1,0,0,1,25.21,13.11Z"/></symbol><symbol id="Stipple_Large" data-name="Stipple Large" viewBox="0 0 66.46 27.94"><path class="cls-7" d="M29.52,10a2.21,2.21,0,1,1-2.21-2.21A2.21,2.21,0,0,1,29.52,10Z"/><path class="cls-7" d="M4.41,13.67a2.21,2.21,0,1,1-2.2-2.21A2.21,2.21,0,0,1,4.41,13.67Z"/><path class="cls-7" d="M22.46,2.2A2.21,2.21,0,1,1,20.26,0,2.21,2.21,0,0,1,22.46,2.2Z"/><path class="cls-7" d="M41.57,2.63A2.21,2.21,0,1,1,39.36.43,2.21,2.21,0,0,1,41.57,2.63Z"/><path class="cls-7" d="M38.67,10.57a2.21,2.21,0,1,1-2.21-2.2A2.2,2.2,0,0,1,38.67,10.57Z"/><path class="cls-7" d="M42.84,17.22a2.21,2.21,0,1,1-2.2-2.2A2.21,2.21,0,0,1,42.84,17.22Z"/><path class="cls-7" d="M51.65,7.18A2.21,2.21,0,1,1,49.45,5,2.19,2.19,0,0,1,51.65,7.18Z"/><path class="cls-7" d="M52.39,14.59a2.21,2.21,0,1,1-2.21-2.21A2.21,2.21,0,0,1,52.39,14.59Z"/><path class="cls-7" d="M57.34,22a2.21,2.21,0,1,1-2.2-2.2A2.2,2.2,0,0,1,57.34,22Z"/><path class="cls-7" d="M46.83,24.38a2.21,2.21,0,1,1-2.21-2.21A2.21,2.21,0,0,1,46.83,24.38Z"/><path class="cls-7" d="M66.46,16.61a2.21,2.21,0,1,1-2.21-2.21A2.2,2.2,0,0,1,66.46,16.61Z"/><path class="cls-7" d="M26.74,25.73a2.21,2.21,0,1,1-2.2-2.2A2.21,2.21,0,0,1,26.74,25.73Z"/><path class="cls-7" d="M12.71,19a2.21,2.21,0,1,1-2.21-2.21A2.21,2.21,0,0,1,12.71,19Z"/><path class="cls-7" d="M10.64,5.33a2.21,2.21,0,1,1-2.2-2.21A2.21,2.21,0,0,1,10.64,5.33Z"/><path class="cls-7" d="M17.89,10.24A2.21,2.21,0,1,1,15.68,8,2.21,2.21,0,0,1,17.89,10.24Z"/><path class="cls-7" d="M22,17a2.21,2.21,0,1,1-2.21-2.2A2.2,2.2,0,0,1,22,17Z"/><path class="cls-7" d="M32.39,19.24A2.21,2.21,0,1,1,30.18,17,2.21,2.21,0,0,1,32.39,19.24Z"/></symbol></defs><g id="Layer_2" data-name="Layer 2"><g id="Layer_1-2" data-name="Layer 1"><use width="26.21" height="26.21" transform="translate(50.5 55.7) scale(11.99 11.79)" xlink:href="#Illuminated_Orange_2"/><path class="cls-8" d="M148.58,159.69c.87-.65,1.48-.67,1.81-.08a1.66,1.66,0,0,1-.34,1.86,2.11,2.11,0,0,1-.79.62,57.42,57.42,0,0,0-6.62,4.85q-5.49,4.35-10.09,8.67,4.37,4.39,5.24,7.53a8.47,8.47,0,0,1,.29,3.62,7,7,0,0,1-1.08,2.86,9.69,9.69,0,0,1-2.1,2.15,14,14,0,0,1-2.58,1.54,19.89,19.89,0,0,1-2.76,1,9.33,9.33,0,0,1-6.83-.74,7.58,7.58,0,0,1-4.23-4.76q-1.09-3.85,4.25-9.74l-4.11-3.68q-2.94-2.62-4.47-4.05a38.85,38.85,0,0,1-3.1-3.31,9.11,9.11,0,0,1-1.91-3.05,7.91,7.91,0,0,1,.87-5.68,18.45,18.45,0,0,1,4.37-5.68,13.94,13.94,0,0,1,5.55-3.22,9.61,9.61,0,0,1,4.14-.26,9.16,9.16,0,0,1,3.43,1.2,13.78,13.78,0,0,1,2.6,2.09,12.92,12.92,0,0,1,1.85,2.27,7.79,7.79,0,0,1,.88,1.87,2.31,2.31,0,0,1-.09,1.73,1.73,1.73,0,0,1-1.09.94,5.13,5.13,0,0,1-1.85-.22,4.72,4.72,0,0,0-2.09-.15,9.85,9.85,0,0,0-2.15.95,8.6,8.6,0,0,0-2.43,2.07,2.85,2.85,0,0,0-.76,2.65,3.28,3.28,0,0,0,.53,1,12.72,12.72,0,0,0,1.22,1.33c.54.52,1,1,1.5,1.42l1.92,1.74c.82.73,1.48,1.33,2,1.8q3.57-2.9,8-5.9c2.95-2,5.49-3.68,7.65-5S148.47,159.78,148.58,159.69Zm-22.07,29.22a2.45,2.45,0,0,0,1.55-1.2,2.58,2.58,0,0,0,.2-2,9.79,9.79,0,0,0-2.08-3.21q-2.45,3.28-2,4.89a2,2,0,0,0,1,1.24A1.9,1.9,0,0,0,126.51,188.91Z" transform="translate(50.5 55.7)"/><path class="cls-8" d="M179.82,151.51c.23-.52.48-.46.77.2a4.45,4.45,0,0,1,.27,2.93.7.7,0,0,0-.1.19l-.84,2.28q-.81,2.19-1.78,4.8t-2.52,6q-1.56,3.38-3.12,6.12a27.29,27.29,0,0,1-3.53,4.87,8.39,8.39,0,0,1-3.75,2.62,9.78,9.78,0,0,1-5.05.13,8.28,8.28,0,0,1-3.9-2.14,16.28,16.28,0,0,1-2.59-3.3,15.3,15.3,0,0,1-1.56-3.62,28.12,28.12,0,0,1-.42-7.28q.15-5.25.55-10.31c.27-3.37.4-5.21.39-5.51q-.1-3.25,1.41-3.66,1.89-.52,8.48,2.18c1.55.64,2.2,2.06,2,4.23q-2.43,21.89-1.26,24.6c.16.34.36.48.58.42q1.47-.39,3.67-3.17a47.78,47.78,0,0,0,4.07-6c1.24-2.17,2.55-4.62,3.94-7.37s2.37-4.75,2.95-6S179.48,152.35,179.82,151.51Zm-23.63-9.69c-.67,0-1.07-.64-1.17-2a34.3,34.3,0,0,1,.46-6.86c.07-.46.57-.81,1.49-1.06a33.26,33.26,0,0,1,6.17.34,2.41,2.41,0,0,1,1.55.77,1.62,1.62,0,0,1,.44,1.56,62.2,62.2,0,0,1-1.72,6q-.84,2.49-2.79,2.07A42.22,42.22,0,0,0,156.19,141.82Z" transform="translate(50.5 55.7)"/><path class="cls-8" d="M232.4,137c.63-.17,1.07-.1,1.31.22a1.05,1.05,0,0,1,.07,1.15,1.31,1.31,0,0,1-.86.83,105.73,105.73,0,0,0-14.09,4.89,32.35,32.35,0,0,1-.91,9,33.43,33.43,0,0,1-2.93,7.89,25.14,25.14,0,0,1-4.16,5.77,10.63,10.63,0,0,1-4.67,3q-8.29,2.25-10.23-4.58-3.13-11.1,12.4-19.53a38.49,38.49,0,0,0-1.42-8.45,7.85,7.85,0,0,0-1.79-3.54,2.22,2.22,0,0,0-2.17-.72,7.86,7.86,0,0,0-4.32,3.14,15.55,15.55,0,0,0-2.57,5.54A49,49,0,0,0,195,147a26.36,26.36,0,0,0-.27,3.81l-.1-.14q-.76,28.71.23,45.22a4.56,4.56,0,0,1-.28,2.28,2.36,2.36,0,0,1-1.59,1,10.19,10.19,0,0,1-2.4.3,8.38,8.38,0,0,1-2.89-.48,2.91,2.91,0,0,1-1.94-1.72q-1-2.73-2.09-18.48t-1.32-30.68q-.21-14.93,1-15.26a4.72,4.72,0,0,1,1-.16,6.88,6.88,0,0,1,1.3.08l1.28.19a11.68,11.68,0,0,1,1.47.34l1.3.36,1.39.41c.69.19,1.05.3,1.09.32a3.07,3.07,0,0,1,2.09,1.61q3.18-6.28,8-7.58,6.74-1.83,10.18.24c2.3,1.37,4.05,4.22,5.28,8.54a27.14,27.14,0,0,1,.8,3.93Q222.77,139.59,232.4,137Zm-29,26.86q1.51-.41,3.09-4.49a30.9,30.9,0,0,0,1.86-9.62q-8.9,6.32-7,13a1.62,1.62,0,0,0,.7.94A1.52,1.52,0,0,0,203.43,163.84Z" transform="translate(50.5 55.7)"/><path class="cls-8" d="M234.72,125.14q2.94-.8,4.73,2.09.81,2.86-3.32,4.68l-.38.1q-3.31.41-3.93-1.77l-.19-.69A3.88,3.88,0,0,1,234.72,125.14ZM238,82.7c1.68-.46,2.7,0,3.09,1.34l.08.3q.39,1.38-1.6,16.2-1.06,14.29-2.44,14.66l-1.11,1c-2.19-.39-3.41-1.06-3.68-2l-.08-.31c-.21-.73.07-3.66.84-8.76q1.59-15.47,3-21.22A4.89,4.89,0,0,1,238,82.7Z" transform="translate(50.5 55.7)"/><text class="cls-9" transform="translate(138.12 157.05) scale(1.26 1)">eve<tspan class="cls-10" x="16.6" y="0">r</tspan><tspan class="cls-11" x="22.4" y="0">y</tspan><tspan x="28.04" y="0">one can enj</tspan><tspan class="cls-12" x="84.63" y="0">o</tspan><tspan x="90.35" y="0">y </tspan><tspan class="cls-13" x="98.65" y="0">a</tspan><tspan x="104.81" y="0">...</tspan></text><use width="66.46" height="27.94" transform="translate(265.03 212.32) scale(0.98 1.14)" xlink:href="#Stipple_Large"/><path class="cls-14" d="M125,30.87c6.87,4.6,10.1,9,11.49,12.76,8,21.84-35.6,49.57-107.73,69.41" transform="translate(50.5 55.7)"/><path class="cls-15" d="M129,33.63C123.36,27.88,118,25.17,113.29,24,86.37,17.34,52.23,54,27.85,114.49" transform="translate(50.5 55.7)"/><use width="66.46" height="27.94" transform="translate(94.82 159.51) scale(1.04 1.08)" xlink:href="#Stipple_Large"/><path class="cls-15" d="M274.57,194.68c-5.88-4.19-11-5.72-15.27-6-24.51-1.58-48.16,36.4-59.39,94" transform="translate(50.5 55.7)"/><path class="cls-14" d="M271,193.17c7.46,3.43,11.32,7.21,13.3,10.74,11.37,20.24-26.62,54.65-93.72,85.89" transform="translate(50.5 55.7)"/><line class="cls-16" x1="0.69"/></g></g></svg>